<svg id="noun_Business_2987557" xmlns="http://www.w3.org/2000/svg" width="102.015" height="80.225" viewBox="0 0 102.015 80.225">
  <path id="Path_12" data-name="Path 12" d="M56.481,51.149l-.171-.171a9.821,9.821,0,0,0-7.024-2.9H40.752a9.8,9.8,0,0,0-6.988,2.9L22.145,62.6,10.256,50.717a1.8,1.8,0,1,0-2.545,2.545l11.9,11.88-7.644,7.626a7.195,7.195,0,0,0,5.09,12.249h.459v.459a7.2,7.2,0,0,0,7.195,7.195h.459v.459a7.195,7.195,0,0,0,12.285,5.09l.683-.692a7.192,7.192,0,0,0,12.033,3.238l7.581-7.653,5.09,5.09a7.195,7.195,0,0,0,12.033-3.229l.683.683a7.195,7.195,0,0,0,12.285-5.09v-.459H88.3a7.2,7.2,0,0,0,7.195-7.195v-.459h.459a7.195,7.195,0,0,0,5.09-12.276l-5.09-5.09,12.779-12.779a1.8,1.8,0,0,0-2.536-2.545L93.353,62.6l-5.081-5.09a7.195,7.195,0,0,0-10.18,0h0a7.1,7.1,0,0,0-1.826,3.229l-.692-.683a7.2,7.2,0,0,0-10.171,0h0a7.2,7.2,0,0,0-1.394,8.2,7.194,7.194,0,0,0-3.7,1.978h0a7.141,7.141,0,0,0-2.1,5.081v.459h-.459a7.141,7.141,0,0,0-5.081,2.05h0L39.951,90.575h0L34.9,95.665a3.687,3.687,0,0,1-5.09,0,3.6,3.6,0,0,1,0-5.09h0L52.029,68.326a1.8,1.8,0,1,0-2.545-2.545L27.226,88.03a3.66,3.66,0,0,1-5.081,0,3.6,3.6,0,0,1,0-5.081h0l22.888-22.9a1.8,1.8,0,0,0-2.545-2.545L19.609,80.4a3.687,3.687,0,0,1-5.09,0,3.6,3.6,0,0,1,0-5.09L36.3,53.541a6.3,6.3,0,0,1,4.452-1.8h8.535a6.3,6.3,0,0,1,4.5,1.8l.171.171A7.2,7.2,0,1,0,64.116,43.523l-3.8-3.8a12.5,12.5,0,0,1,8.49-3.274h8.427a16.08,16.08,0,0,0,11.448-4.775l5.962-5.962a1.8,1.8,0,0,0-2.545-2.545l-5.935,5.962a12.519,12.519,0,0,1-8.9,3.687H68.8A16.053,16.053,0,0,0,57.749,37.2a16.017,16.017,0,0,0-11.044-4.344H38.279a12.518,12.518,0,0,1-8.9-3.687l-5.962-5.962a1.8,1.8,0,1,0-2.545,2.545L26.8,31.679a16.08,16.08,0,0,0,11.475,4.775h8.427a12.483,12.483,0,0,1,8.9,3.687L61.571,46.1a3.6,3.6,0,0,1,0,5.081A3.687,3.687,0,0,1,56.481,51.149Zm-8.9,47.061a3.6,3.6,0,0,1-5.09-5.1l8.319-8.31a7.122,7.122,0,0,0,1.862,3.22l2.545,2.545ZM80.646,65.142a3.6,3.6,0,0,1,0-5.09h0a3.6,3.6,0,0,1,5.09,0L98.452,72.777a3.6,3.6,0,0,1-5.1,5.045ZM67.929,62.6a3.678,3.678,0,0,1,5.081,0L90.817,80.4a3.6,3.6,0,0,1,0,5.09,3.678,3.678,0,0,1-5.081,0L70.447,70.205h0l-2.536-2.536a3.6,3.6,0,0,1,.018-5.072ZM61.787,75.313a3.6,3.6,0,0,1,1.052-2.536h0a3.6,3.6,0,0,1,5.09,0L83.218,88.066a3.6,3.6,0,0,1,0,5.081,3.687,3.687,0,0,1-5.153-.036L72.983,88.03h0L62.839,77.822A3.6,3.6,0,0,1,61.787,75.313ZM60.294,80.4l10.18,10.18a3.6,3.6,0,0,1,0,5.081,3.687,3.687,0,0,1-5.09,0L55.213,85.494a3.6,3.6,0,0,1,0-5.09h0A3.6,3.6,0,0,1,60.294,80.4Z" transform="translate(-7.184 -22.644)"/>
</svg>
